<svg width="946" height="195" viewBox="0 0 946 195" fill="none" xmlns="http://www.w3.org/2000/svg">
<path d="M203.046 75.28C199.206 75.28 195.646 74.64 192.366 73.36C189.086 72.0533 186.419 70.0267 184.366 67.28C182.313 64.5067 181.179 60.9067 180.966 56.48H193.606C193.606 58.1067 194.019 59.4533 194.846 60.52C195.673 61.5867 196.793 62.3733 198.206 62.88C199.646 63.3867 201.233 63.64 202.966 63.64C204.353 63.64 205.646 63.52 206.846 63.28C208.073 63.04 209.059 62.6133 209.806 62C210.553 61.3867 210.926 60.5467 210.926 59.48C210.926 58.1733 210.526 57.2 209.726 56.56C208.953 55.92 207.539 55.1867 205.486 54.36L193.806 49.28C189.966 47.6267 186.979 45.68 184.846 43.44C182.713 41.2 181.646 38.1467 181.646 34.28C181.646 29.7467 183.486 26.0933 187.166 23.32C190.873 20.52 195.939 19.12 202.366 19.12C208.899 19.12 213.913 20.6667 217.406 23.76C220.899 26.8267 222.859 31.2133 223.286 36.92H210.726C210.406 35.16 209.619 33.68 208.366 32.48C207.139 31.28 205.139 30.68 202.366 30.68C200.366 30.68 198.753 31.0533 197.526 31.8C196.299 32.52 195.686 33.4267 195.686 34.52C195.686 35.5333 196.073 36.3333 196.846 36.92C197.646 37.5067 198.833 38.1467 200.406 38.84L212.766 44.08C216.873 45.8667 219.926 47.96 221.926 50.36C223.953 52.76 224.966 55.64 224.966 59C224.966 62.6 224.099 65.6133 222.366 68.04C220.659 70.44 218.166 72.2533 214.886 73.48C211.633 74.68 207.686 75.28 203.046 75.28ZM262.276 34.36H275.076V74H262.276V34.36ZM236.156 34.36H248.956V58.2C248.956 60.0133 249.409 61.36 250.316 62.24C251.249 63.0933 252.436 63.52 253.876 63.52C255.183 63.52 256.476 63.2 257.756 62.56C259.063 61.92 260.143 60.8267 260.996 59.28C261.849 57.7333 262.276 55.5867 262.276 52.84H265.076C265.076 58.0667 264.476 62.2933 263.276 65.52C262.076 68.72 260.436 71.0533 258.356 72.52C256.303 73.9867 253.969 74.72 251.356 74.72C248.716 74.72 246.236 74.2667 243.916 73.36C241.596 72.4533 239.716 70.9067 238.276 68.72C236.863 66.5333 236.156 63.52 236.156 59.68V34.36ZM303.789 75.28C300.029 75.28 296.709 74.7867 293.829 73.8C290.949 72.7867 288.696 71.28 287.069 69.28C285.469 67.2533 284.682 64.7067 284.709 61.64H296.269C296.322 63.0267 296.856 63.9867 297.869 64.52C298.909 65.0533 300.309 65.32 302.069 65.32C303.136 65.32 304.016 65.1867 304.709 64.92C305.402 64.6533 305.922 64.3067 306.269 63.88C306.616 63.4267 306.789 62.9467 306.789 62.44C306.789 61.7733 306.549 61.24 306.069 60.84C305.589 60.44 304.842 60.04 303.829 59.64L294.269 55.92C291.442 54.7467 289.256 53.2667 287.709 51.48C286.189 49.6667 285.429 47.52 285.429 45.04C285.429 41.5467 287.042 38.72 290.269 36.56C293.496 34.4 297.909 33.32 303.509 33.32C308.762 33.32 312.802 34.5467 315.629 37C318.456 39.4533 319.882 42.5733 319.909 46.36H308.189C308.189 45.5067 307.829 44.7733 307.109 44.16C306.389 43.52 305.189 43.2 303.509 43.2C302.122 43.2 301.029 43.4267 300.229 43.88C299.429 44.3333 299.029 44.9333 299.029 45.68C299.029 46.6933 299.869 47.4933 301.549 48.08L312.429 52.44C315.122 53.5067 317.242 54.84 318.789 56.44C320.336 58.04 321.109 60.04 321.109 62.44C321.109 64.6267 320.349 66.7067 318.829 68.68C317.336 70.6267 315.282 72.2133 312.669 73.44C310.056 74.6667 307.096 75.28 303.789 75.28ZM345.453 75.28C342.946 75.28 340.599 74.8267 338.413 73.92C336.253 73.0133 334.506 71.6 333.173 69.68C331.866 67.7333 331.213 65.24 331.213 62.2V24.64H344.093V61.72C344.093 64.12 345.279 65.32 347.653 65.32C348.399 65.32 349.186 65.24 350.013 65.08C350.866 64.8933 351.853 64.6 352.973 64.2L354.853 73.12C353.226 73.7067 351.666 74.2133 350.173 74.64C348.706 75.0667 347.133 75.28 345.453 75.28ZM326.533 42.88V34.6H353.053V42.88H326.533ZM389.858 74L388.218 63.48V48.72C388.218 46.7467 387.858 45.2133 387.138 44.12C386.418 43.0267 384.884 42.48 382.538 42.48C381.151 42.48 380.018 42.6933 379.138 43.12C378.284 43.52 377.644 44.0667 377.218 44.76C376.818 45.4267 376.618 46.16 376.618 46.96H362.778C362.778 43.8667 363.511 41.32 364.978 39.32C366.444 37.2933 368.644 35.7867 371.578 34.8C374.511 33.8133 378.164 33.32 382.538 33.32C386.351 33.32 389.631 33.9067 392.378 35.08C395.151 36.2533 397.284 38.0133 398.778 40.36C400.271 42.7067 401.018 45.6533 401.018 49.2V74H389.858ZM377.458 75.28C373.938 75.28 370.964 74.6933 368.538 73.52C366.138 72.32 364.324 70.7067 363.098 68.68C361.871 66.6533 361.258 64.4133 361.258 61.96C361.258 59.64 361.898 57.64 363.178 55.96C364.458 54.2533 366.351 52.9333 368.858 52C371.391 51.0667 374.498 50.6 378.178 50.6C380.418 50.6 382.391 50.72 384.098 50.96C385.831 51.2 387.604 51.4933 389.418 51.84V59.04C388.084 58.7467 386.698 58.52 385.258 58.36C383.844 58.2 382.458 58.12 381.098 58.12C379.204 58.12 377.698 58.4267 376.578 59.04C375.484 59.6267 374.938 60.6 374.938 61.96C374.938 62.9467 375.431 63.8133 376.418 64.56C377.404 65.28 378.964 65.64 381.098 65.64C382.911 65.64 384.338 65.28 385.378 64.56C386.418 63.84 387.151 62.9333 387.578 61.84C388.004 60.7467 388.218 59.6667 388.218 58.6H391.218C391.218 61.64 390.738 64.4267 389.778 66.96C388.818 69.4933 387.324 71.52 385.298 73.04C383.271 74.5333 380.658 75.28 377.458 75.28ZM421.345 29.52C418.919 29.52 417.039 28.9067 415.705 27.68C414.399 26.4267 413.745 24.6667 413.745 22.4C413.745 20.1867 414.399 18.4267 415.705 17.12C417.039 15.7867 418.919 15.12 421.345 15.12C423.692 15.12 425.545 15.7867 426.905 17.12C428.265 18.4267 428.945 20.1867 428.945 22.4C428.945 24.6667 428.265 26.4267 426.905 27.68C425.545 28.9067 423.692 29.52 421.345 29.52ZM414.945 74V34.36H427.745V74H414.945ZM468.535 74V51.04C468.535 48.96 468.029 47.4267 467.015 46.44C466.002 45.4267 464.775 44.92 463.335 44.92C461.869 44.92 460.522 45.3333 459.295 46.16C458.069 46.9867 457.082 48.32 456.335 50.16C455.615 51.9733 455.255 54.3867 455.255 57.4H451.375C451.375 51.7467 452.042 47.1467 453.375 43.6C454.735 40.0533 456.575 37.4533 458.895 35.8C461.242 34.1467 463.895 33.32 466.855 33.32C470.242 33.32 473.002 34.08 475.135 35.6C477.295 37.12 478.882 39.2133 479.895 41.88C480.909 44.5467 481.415 47.6 481.415 51.04V74H468.535ZM442.455 74V34.6H453.735L455.255 41.12V74H442.455ZM519.78 74L518.14 63.48V48.72C518.14 46.7467 517.78 45.2133 517.06 44.12C516.34 43.0267 514.806 42.48 512.46 42.48C511.073 42.48 509.94 42.6933 509.06 43.12C508.206 43.52 507.566 44.0667 507.14 44.76C506.74 45.4267 506.54 46.16 506.54 46.96H492.7C492.7 43.8667 493.433 41.32 494.9 39.32C496.366 37.2933 498.566 35.7867 501.5 34.8C504.433 33.8133 508.086 33.32 512.46 33.32C516.273 33.32 519.553 33.9067 522.3 35.08C525.073 36.2533 527.206 38.0133 528.7 40.36C530.193 42.7067 530.94 45.6533 530.94 49.2V74H519.78ZM507.38 75.28C503.86 75.28 500.886 74.6933 498.46 73.52C496.06 72.32 494.246 70.7067 493.02 68.68C491.793 66.6533 491.18 64.4133 491.18 61.96C491.18 59.64 491.82 57.64 493.1 55.96C494.38 54.2533 496.273 52.9333 498.78 52C501.313 51.0667 504.42 50.6 508.1 50.6C510.34 50.6 512.313 50.72 514.02 50.96C515.753 51.2 517.526 51.4933 519.34 51.84V59.04C518.006 58.7467 516.62 58.52 515.18 58.36C513.766 58.2 512.38 58.12 511.02 58.12C509.126 58.12 507.62 58.4267 506.5 59.04C505.406 59.6267 504.86 60.6 504.86 61.96C504.86 62.9467 505.353 63.8133 506.34 64.56C507.326 65.28 508.886 65.64 511.02 65.64C512.833 65.64 514.26 65.28 515.3 64.56C516.34 63.84 517.073 62.9333 517.5 61.84C517.926 60.7467 518.14 59.6667 518.14 58.6H521.14C521.14 61.64 520.66 64.4267 519.7 66.96C518.74 69.4933 517.246 71.52 515.22 73.04C513.193 74.5333 510.58 75.28 507.38 75.28ZM565.907 75.28C563.641 75.28 561.521 74.6 559.547 73.24C557.601 71.8533 556.027 69.7333 554.827 66.88C553.654 64 553.067 60.3333 553.067 55.88H556.427C556.427 57.2667 556.787 58.5467 557.507 59.72C558.254 60.8933 559.187 61.84 560.307 62.56C561.454 63.2533 562.614 63.6 563.787 63.6C565.414 63.6 566.801 63.1867 567.947 62.36C569.121 61.5333 570.027 60.4 570.667 58.96C571.307 57.52 571.627 55.8933 571.627 54.08C571.627 52.3467 571.307 50.7867 570.667 49.4C570.054 48.0133 569.161 46.92 567.987 46.12C566.814 45.32 565.387 44.92 563.707 44.92C562.401 44.92 561.187 45.2267 560.067 45.84C558.974 46.4533 558.094 47.32 557.427 48.44C556.761 49.5333 556.427 50.8267 556.427 52.32H553.067C553.067 48.08 553.601 44.56 554.667 41.76C555.761 38.9333 557.334 36.8267 559.387 35.44C561.467 34.0267 563.987 33.32 566.947 33.32C570.254 33.32 573.214 34.1867 575.827 35.92C578.467 37.6533 580.561 40.08 582.107 43.2C583.654 46.2933 584.427 49.92 584.427 54.08C584.427 58.2933 583.601 62 581.947 65.2C580.321 68.3733 578.107 70.8533 575.307 72.64C572.534 74.4 569.401 75.28 565.907 75.28ZM543.627 74V18.8H556.427V63.72L551.627 74H543.627ZM602.205 29.52C599.778 29.52 597.898 28.9067 596.565 27.68C595.258 26.4267 594.605 24.6667 594.605 22.4C594.605 20.1867 595.258 18.4267 596.565 17.12C597.898 15.7867 599.778 15.12 602.205 15.12C604.551 15.12 606.405 15.7867 607.765 17.12C609.125 18.4267 609.805 20.1867 609.805 22.4C609.805 24.6667 609.125 26.4267 607.765 27.68C606.405 28.9067 604.551 29.52 602.205 29.52ZM595.805 74V34.36H608.605V74H595.805ZM623.315 74V18.8H636.115V74H623.315ZM657.361 29.52C654.934 29.52 653.054 28.9067 651.721 27.68C650.414 26.4267 649.761 24.6667 649.761 22.4C649.761 20.1867 650.414 18.4267 651.721 17.12C653.054 15.7867 654.934 15.12 657.361 15.12C659.708 15.12 661.561 15.7867 662.921 17.12C664.281 18.4267 664.961 20.1867 664.961 22.4C664.961 24.6667 664.281 26.4267 662.921 27.68C661.561 28.9067 659.708 29.52 657.361 29.52ZM650.961 74V34.36H663.761V74H650.961ZM693.031 75.28C690.524 75.28 688.178 74.8267 685.991 73.92C683.831 73.0133 682.084 71.6 680.751 69.68C679.444 67.7333 678.791 65.24 678.791 62.2V24.64H691.671V61.72C691.671 64.12 692.858 65.32 695.231 65.32C695.978 65.32 696.764 65.24 697.591 65.08C698.444 64.8933 699.431 64.6 700.551 64.2L702.431 73.12C700.804 73.7067 699.244 74.2133 697.751 74.64C696.284 75.0667 694.711 75.28 693.031 75.28ZM674.111 42.88V34.6H700.631V42.88H674.111ZM706.116 34.6H720.756L728.836 62.8H726.876L734.916 34.6H747.876L732.516 80.36C730.649 85.7467 728.476 89.4533 725.996 91.48C723.543 93.5067 720.676 94.52 717.396 94.52C715.396 94.52 713.383 94.3333 711.356 93.96C709.356 93.6133 707.356 93.0267 705.356 92.2V81.2C706.849 81.8933 708.303 82.4133 709.716 82.76C711.156 83.1333 712.556 83.32 713.916 83.32C714.823 83.32 715.676 83.1467 716.476 82.8C717.276 82.48 718.009 81.9067 718.676 81.08C719.343 80.2533 719.903 79.12 720.356 77.68L721.636 74L706.116 34.6ZM413.772 113.84H423.052V168H410.252V129.24C408.732 129.613 407.305 129.907 405.972 130.12C404.665 130.333 403.345 130.427 402.012 130.4V118.24C403.959 118.08 405.852 117.667 407.692 117C409.559 116.333 411.585 115.28 413.772 113.84ZM530.725 113.84H540.005V168H527.205V129.24C525.685 129.613 524.258 129.907 522.925 130.12C521.618 130.333 520.298 130.427 518.965 130.4V118.24C520.912 118.08 522.805 117.667 524.645 117C526.512 116.333 528.538 115.28 530.725 113.84Z" fill="black"/>
<ellipse cx="476" cy="143" rx="36" ry="40" fill="#064789"/>
<ellipse cx="476" cy="143" rx="31" ry="36" fill="#D1F2BB"/>
<line y1="-1.5" x2="20.0693" y2="-1.5" transform="matrix(-0.724839 0.688918 -0.571116 -0.82087 483.087 164.574)" stroke="#427AA1" stroke-width="3"/>
<path d="M482.848 193.767L469 179" stroke="#064789" stroke-width="3"/>
<path d="M434 123.711L451.924 117.3" stroke="#064789" stroke-width="3"/>
<line y1="-1.5" x2="21.8501" y2="-1.5" transform="matrix(-0.126962 -0.991907 0.985055 -0.172242 455.246 136.988)" stroke="#064789" stroke-width="3"/>
<path d="M512.246 115.314L508.734 136.835" stroke="#064789" stroke-width="3"/>
<line y1="-1.5" x2="19.1211" y2="-1.5" transform="matrix(0.925429 0.378921 -0.28711 0.957898 492 128)" stroke="#064789" stroke-width="3"/>
<line y1="-1.5" x2="20.0693" y2="-1.5" transform="matrix(-0.724839 0.688918 -0.571116 -0.82087 483.087 164.574)" stroke="#064789" stroke-width="3"/>
</svg>
