<svg width="946" height="94" viewBox="0 0 946 94" fill="none" xmlns="http://www.w3.org/2000/svg">
<ellipse cx="475.5" cy="68.5" rx="12.5" ry="13.5" fill="#064789"/>
<ellipse cx="475.5" cy="68.5" rx="11.5" ry="12.5" fill="#D1F2BB"/>
<line y1="-1.5" x2="6.96254" y2="-1.5" transform="matrix(-0.747652 0.664091 -0.597158 -0.802124 477.565 75.5918)" stroke="#064789" stroke-width="3"/>
<path d="M477.938 85L472.982 80.0617" stroke="#064789" stroke-width="3"/>
<path d="M460 61.9263L466.414 59.7823" stroke="#064789" stroke-width="3"/>
<line y1="-1.5" x2="7.3157" y2="-1.5" transform="matrix(-0.135696 -0.99075 0.98691 -0.161272 467.604 66.3667)" stroke="#064789" stroke-width="3"/>
<path d="M488 59.1182L486.743 66.3152" stroke="#064789" stroke-width="3"/>
<line y1="-1.5" x2="6.77989" y2="-1.5" transform="matrix(0.933958 0.357383 -0.305398 0.952225 480.857 64.3916)" stroke="#064789" stroke-width="3"/>
<line y1="-1.5" x2="6.96254" y2="-1.5" transform="matrix(-0.747652 0.664091 -0.597158 -0.802124 477.565 75.5918)" stroke="#064789" stroke-width="3"/>
<path d="M338.023 37.64C336.103 37.64 334.323 37.32 332.683 36.68C331.043 36.0267 329.71 35.0133 328.683 33.64C327.656 32.2533 327.09 30.4533 326.983 28.24H333.303C333.303 29.0533 333.51 29.7267 333.923 30.26C334.336 30.7933 334.896 31.1867 335.603 31.44C336.323 31.6933 337.116 31.82 337.983 31.82C338.676 31.82 339.323 31.76 339.923 31.64C340.536 31.52 341.03 31.3067 341.403 31C341.776 30.6933 341.963 30.2733 341.963 29.74C341.963 29.0867 341.763 28.6 341.363 28.28C340.976 27.96 340.27 27.5933 339.243 27.18L333.403 24.64C331.483 23.8133 329.99 22.84 328.923 21.72C327.856 20.6 327.323 19.0733 327.323 17.14C327.323 14.8733 328.243 13.0467 330.083 11.66C331.936 10.26 334.47 9.56 337.683 9.56C340.95 9.56 343.456 10.3333 345.203 11.88C346.95 13.4133 347.93 15.6067 348.143 18.46H341.863C341.703 17.58 341.31 16.84 340.683 16.24C340.07 15.64 339.07 15.34 337.683 15.34C336.683 15.34 335.876 15.5267 335.263 15.9C334.65 16.26 334.343 16.7133 334.343 17.26C334.343 17.7667 334.536 18.1667 334.923 18.46C335.323 18.7533 335.916 19.0733 336.703 19.42L342.883 22.04C344.936 22.9333 346.463 23.98 347.463 25.18C348.476 26.38 348.983 27.82 348.983 29.5C348.983 31.3 348.55 32.8067 347.683 34.02C346.83 35.22 345.583 36.1267 343.943 36.74C342.316 37.34 340.343 37.64 338.023 37.64ZM367.638 17.18H374.038V37H367.638V17.18ZM354.578 17.18H360.978V29.1C360.978 30.0067 361.205 30.68 361.658 31.12C362.125 31.5467 362.718 31.76 363.438 31.76C364.091 31.76 364.738 31.6 365.378 31.28C366.031 30.96 366.571 30.4133 366.998 29.64C367.425 28.8667 367.638 27.7933 367.638 26.42H369.038C369.038 29.0333 368.738 31.1467 368.138 32.76C367.538 34.36 366.718 35.5267 365.678 36.26C364.651 36.9933 363.485 37.36 362.178 37.36C360.858 37.36 359.618 37.1333 358.458 36.68C357.298 36.2267 356.358 35.4533 355.638 34.36C354.931 33.2667 354.578 31.76 354.578 29.84V17.18ZM388.395 37.64C386.515 37.64 384.855 37.3933 383.415 36.9C381.975 36.3933 380.848 35.64 380.035 34.64C379.235 33.6267 378.841 32.3533 378.855 30.82H384.635C384.661 31.5133 384.928 31.9933 385.435 32.26C385.955 32.5267 386.655 32.66 387.535 32.66C388.068 32.66 388.508 32.5933 388.855 32.46C389.201 32.3267 389.461 32.1533 389.635 31.94C389.808 31.7133 389.895 31.4733 389.895 31.22C389.895 30.8867 389.775 30.62 389.535 30.42C389.295 30.22 388.921 30.02 388.415 29.82L383.635 27.96C382.221 27.3733 381.128 26.6333 380.355 25.74C379.595 24.8333 379.215 23.76 379.215 22.52C379.215 20.7733 380.021 19.36 381.635 18.28C383.248 17.2 385.455 16.66 388.255 16.66C390.881 16.66 392.901 17.2733 394.315 18.5C395.728 19.7267 396.441 21.2867 396.455 23.18H390.595C390.595 22.7533 390.415 22.3867 390.055 22.08C389.695 21.76 389.095 21.6 388.255 21.6C387.561 21.6 387.015 21.7133 386.615 21.94C386.215 22.1667 386.015 22.4667 386.015 22.84C386.015 23.3467 386.435 23.7467 387.275 24.04L392.715 26.22C394.061 26.7533 395.121 27.42 395.895 28.22C396.668 29.02 397.055 30.02 397.055 31.22C397.055 32.3133 396.675 33.3533 395.915 34.34C395.168 35.3133 394.141 36.1067 392.835 36.72C391.528 37.3333 390.048 37.64 388.395 37.64ZM409.226 37.64C407.973 37.64 406.8 37.4133 405.706 36.96C404.626 36.5067 403.753 35.8 403.086 34.84C402.433 33.8667 402.106 32.62 402.106 31.1V12.32H408.546V30.86C408.546 32.06 409.14 32.66 410.326 32.66C410.7 32.66 411.093 32.62 411.506 32.54C411.933 32.4467 412.426 32.3 412.986 32.1L413.926 36.56C413.113 36.8533 412.333 37.1067 411.586 37.32C410.853 37.5333 410.066 37.64 409.226 37.64ZM399.766 21.44V17.3H413.026V21.44H399.766ZM431.429 37L430.609 31.74V24.36C430.609 23.3733 430.429 22.6067 430.069 22.06C429.709 21.5133 428.942 21.24 427.769 21.24C427.076 21.24 426.509 21.3467 426.069 21.56C425.642 21.76 425.322 22.0333 425.109 22.38C424.909 22.7133 424.809 23.08 424.809 23.48H417.889C417.889 21.9333 418.256 20.66 418.989 19.66C419.722 18.6467 420.822 17.8933 422.289 17.4C423.756 16.9067 425.582 16.66 427.769 16.66C429.676 16.66 431.316 16.9533 432.689 17.54C434.076 18.1267 435.142 19.0067 435.889 20.18C436.636 21.3533 437.009 22.8267 437.009 24.6V37H431.429ZM425.229 37.64C423.469 37.64 421.982 37.3467 420.769 36.76C419.569 36.16 418.662 35.3533 418.049 34.34C417.436 33.3267 417.129 32.2067 417.129 30.98C417.129 29.82 417.449 28.82 418.089 27.98C418.729 27.1267 419.676 26.4667 420.929 26C422.196 25.5333 423.749 25.3 425.589 25.3C426.709 25.3 427.696 25.36 428.549 25.48C429.416 25.6 430.302 25.7467 431.209 25.92V29.52C430.542 29.3733 429.849 29.26 429.129 29.18C428.422 29.1 427.729 29.06 427.049 29.06C426.102 29.06 425.349 29.2133 424.789 29.52C424.242 29.8133 423.969 30.3 423.969 30.98C423.969 31.4733 424.216 31.9067 424.709 32.28C425.202 32.64 425.982 32.82 427.049 32.82C427.956 32.82 428.669 32.64 429.189 32.28C429.709 31.92 430.076 31.4667 430.289 30.92C430.502 30.3733 430.609 29.8333 430.609 29.3H432.109C432.109 30.82 431.869 32.2133 431.389 33.48C430.909 34.7467 430.162 35.76 429.149 36.52C428.136 37.2667 426.829 37.64 425.229 37.64ZM447.173 14.76C445.959 14.76 445.019 14.4533 444.353 13.84C443.699 13.2133 443.373 12.3333 443.373 11.2C443.373 10.0933 443.699 9.21333 444.353 8.56C445.019 7.89333 445.959 7.56 447.173 7.56C448.346 7.56 449.273 7.89333 449.953 8.56C450.633 9.21333 450.973 10.0933 450.973 11.2C450.973 12.3333 450.633 13.2133 449.953 13.84C449.273 14.4533 448.346 14.76 447.173 14.76ZM443.973 37V17.18H450.373V37H443.973ZM470.768 37V25.52C470.768 24.48 470.514 23.7133 470.008 23.22C469.501 22.7133 468.888 22.46 468.168 22.46C467.434 22.46 466.761 22.6667 466.148 23.08C465.534 23.4933 465.041 24.16 464.668 25.08C464.308 25.9867 464.128 27.1933 464.128 28.7H462.188C462.188 25.8733 462.521 23.5733 463.188 21.8C463.868 20.0267 464.788 18.7267 465.948 17.9C467.121 17.0733 468.448 16.66 469.928 16.66C471.621 16.66 473.001 17.04 474.068 17.8C475.148 18.56 475.941 19.6067 476.448 20.94C476.954 22.2733 477.208 23.8 477.208 25.52V37H470.768ZM457.728 37V17.3H463.368L464.128 20.56V37H457.728ZM496.39 37L495.57 31.74V24.36C495.57 23.3733 495.39 22.6067 495.03 22.06C494.67 21.5133 493.903 21.24 492.73 21.24C492.037 21.24 491.47 21.3467 491.03 21.56C490.603 21.76 490.283 22.0333 490.07 22.38C489.87 22.7133 489.77 23.08 489.77 23.48H482.85C482.85 21.9333 483.217 20.66 483.95 19.66C484.683 18.6467 485.783 17.8933 487.25 17.4C488.717 16.9067 490.543 16.66 492.73 16.66C494.637 16.66 496.277 16.9533 497.65 17.54C499.037 18.1267 500.103 19.0067 500.85 20.18C501.597 21.3533 501.97 22.8267 501.97 24.6V37H496.39ZM490.19 37.64C488.43 37.64 486.943 37.3467 485.73 36.76C484.53 36.16 483.623 35.3533 483.01 34.34C482.397 33.3267 482.09 32.2067 482.09 30.98C482.09 29.82 482.41 28.82 483.05 27.98C483.69 27.1267 484.637 26.4667 485.89 26C487.157 25.5333 488.71 25.3 490.55 25.3C491.67 25.3 492.657 25.36 493.51 25.48C494.377 25.6 495.263 25.7467 496.17 25.92V29.52C495.503 29.3733 494.81 29.26 494.09 29.18C493.383 29.1 492.69 29.06 492.01 29.06C491.063 29.06 490.31 29.2133 489.75 29.52C489.203 29.8133 488.93 30.3 488.93 30.98C488.93 31.4733 489.177 31.9067 489.67 32.28C490.163 32.64 490.943 32.82 492.01 32.82C492.917 32.82 493.63 32.64 494.15 32.28C494.67 31.92 495.037 31.4667 495.25 30.92C495.463 30.3733 495.57 29.8333 495.57 29.3H497.07C497.07 30.82 496.83 32.2133 496.35 33.48C495.87 34.7467 495.123 35.76 494.11 36.52C493.097 37.2667 491.79 37.64 490.19 37.64ZM519.454 37.64C518.32 37.64 517.26 37.3 516.274 36.62C515.3 35.9267 514.514 34.8667 513.914 33.44C513.327 32 513.034 30.1667 513.034 27.94H514.714C514.714 28.6333 514.894 29.2733 515.254 29.86C515.627 30.4467 516.094 30.92 516.654 31.28C517.227 31.6267 517.807 31.8 518.394 31.8C519.207 31.8 519.9 31.5933 520.474 31.18C521.06 30.7667 521.514 30.2 521.834 29.48C522.154 28.76 522.314 27.9467 522.314 27.04C522.314 26.1733 522.154 25.3933 521.834 24.7C521.527 24.0067 521.08 23.46 520.494 23.06C519.907 22.66 519.194 22.46 518.354 22.46C517.7 22.46 517.094 22.6133 516.534 22.92C515.987 23.2267 515.547 23.66 515.214 24.22C514.88 24.7667 514.714 25.4133 514.714 26.16H513.034C513.034 24.04 513.3 22.28 513.834 20.88C514.38 19.4667 515.167 18.4133 516.194 17.72C517.234 17.0133 518.494 16.66 519.974 16.66C521.627 16.66 523.107 17.0933 524.414 17.96C525.734 18.8267 526.78 20.04 527.554 21.6C528.327 23.1467 528.714 24.96 528.714 27.04C528.714 29.1467 528.3 31 527.474 32.6C526.66 34.1867 525.554 35.4267 524.154 36.32C522.767 37.2 521.2 37.64 519.454 37.64ZM508.314 37V9.4H514.714V31.86L512.314 37H508.314ZM537.602 14.76C536.389 14.76 535.449 14.4533 534.782 13.84C534.129 13.2133 533.802 12.3333 533.802 11.2C533.802 10.0933 534.129 9.21333 534.782 8.56C535.449 7.89333 536.389 7.56 537.602 7.56C538.776 7.56 539.702 7.89333 540.382 8.56C541.062 9.21333 541.402 10.0933 541.402 11.2C541.402 12.3333 541.062 13.2133 540.382 13.84C539.702 14.4533 538.776 14.76 537.602 14.76ZM534.402 37V17.18H540.802V37H534.402ZM548.157 37V9.4H554.557V37H548.157ZM565.18 14.76C563.967 14.76 563.027 14.4533 562.36 13.84C561.707 13.2133 561.38 12.3333 561.38 11.2C561.38 10.0933 561.707 9.21333 562.36 8.56C563.027 7.89333 563.967 7.56 565.18 7.56C566.354 7.56 567.28 7.89333 567.96 8.56C568.64 9.21333 568.98 10.0933 568.98 11.2C568.98 12.3333 568.64 13.2133 567.96 13.84C567.28 14.4533 566.354 14.76 565.18 14.76ZM561.98 37V17.18H568.38V37H561.98ZM583.015 37.64C581.762 37.64 580.589 37.4133 579.495 36.96C578.415 36.5067 577.542 35.8 576.875 34.84C576.222 33.8667 575.895 32.62 575.895 31.1V12.32H582.335V30.86C582.335 32.06 582.929 32.66 584.115 32.66C584.489 32.66 584.882 32.62 585.295 32.54C585.722 32.4467 586.215 32.3 586.775 32.1L587.715 36.56C586.902 36.8533 586.122 37.1067 585.375 37.32C584.642 37.5333 583.855 37.64 583.015 37.64ZM573.555 21.44V17.3H586.815V21.44H573.555ZM589.558 17.3H596.878L600.918 31.4H599.938L603.958 17.3H610.438L602.758 40.18C601.825 42.8733 600.738 44.7267 599.498 45.74C598.271 46.7533 596.838 47.26 595.198 47.26C594.198 47.26 593.191 47.1667 592.178 46.98C591.178 46.8067 590.178 46.5133 589.178 46.1V40.6C589.925 40.9467 590.651 41.2067 591.358 41.38C592.078 41.5667 592.778 41.66 593.458 41.66C593.911 41.66 594.338 41.5733 594.738 41.4C595.138 41.24 595.505 40.9533 595.838 40.54C596.171 40.1267 596.451 39.56 596.678 38.84L597.318 37L589.558 17.3ZM443.386 56.92H448.026V84H441.626V64.62C440.866 64.8067 440.153 64.9533 439.486 65.06C438.833 65.1667 438.173 65.2133 437.506 65.2V59.12C438.479 59.04 439.426 58.8333 440.346 58.5C441.279 58.1667 442.293 57.64 443.386 56.92ZM501.863 56.92H506.503V84H500.103V64.62C499.343 64.8067 498.629 64.9533 497.963 65.06C497.309 65.1667 496.649 65.2133 495.983 65.2V59.12C496.956 59.04 497.903 58.8333 498.823 58.5C499.756 58.1667 500.769 57.64 501.863 56.92Z" fill="black"/>
</svg>
